<svg xmlns="http://www.w3.org/2000/svg" width="16" height="16" viewBox="0 0 16 16" fill="none">
  <path fill-rule="evenodd" clip-rule="evenodd" d="M12.4714 3.52861C12.211 3.26826 11.7889 3.26826 11.5286 3.52861L8.00002 7.05723L4.4714 3.52861C4.21105 3.26826 3.78894 3.26826 3.52859 3.52861C3.26824 3.78896 3.26824 4.21107 3.52859 4.47142L7.05721 8.00004L3.52859 11.5287C3.26824 11.789 3.26824 12.2111 3.52859 12.4715C3.78894 12.7318 4.21105 12.7318 4.4714 12.4715L8.00002 8.94285L11.5286 12.4715C11.7889 12.7318 12.211 12.7318 12.4714 12.4715C12.7318 12.2111 12.7318 11.789 12.4714 11.5287L8.94282 8.00004L12.4714 4.47142C12.7318 4.21107 12.7318 3.78896 12.4714 3.52861Z" fill="#656565"/>
</svg>
